<svg xmlns="http://www.w3.org/2000/svg" viewBox="0 0 1920 1080"><title>map</title><g id="Fondo"><rect width="1920" height="1080" style="fill:#c5e4ff;stroke:#fff;stroke-miterlimit:10;stroke-width:0.75px"/></g><g id="Dibujo"><rect y="105.56" width="16.48" height="8.12" style="fill:#fff"/><polygon points="0 146.16 24.72 146.16 24.72 154.29 41.2 154.29 41.2 146.67 57.68 146.67 57.68 138.04 24.72 138.04 24.72 129.93 8.24 129.93 8.24 121.81 0 121.81 0 146.16" style="fill:#fff"/><polygon points="881.72 146.16 889.96 146.16 889.96 154.29 865.24 154.29 865.24 162.41 848.75 162.41 848.75 154.29 832.27 154.29 832.27 146.16 871.67 146.16 871.67 138.04 881.72 138.04 881.72 146.16" style="fill:#fff"/><polygon points="889.96 48.72 889.96 56.84 865.24 56.84 865.24 89.32 857 89.32 857 97.44 840.51 97.44 840.51 121.81 832.27 121.81 832.27 129.93 791.07 129.93 791.07 138.04 774.59 138.04 774.59 146.16 749.87 146.16 749.87 154.29 741.63 154.29 741.63 162.41 733.39 162.41 733.39 178.65 708.67 178.65 708.67 170.53 692.19 170.53 692.19 154.29 683.95 154.29 683.95 146.16 673.67 146.16 673.67 129.93 683.67 129.93 683.67 121.81 667.47 121.81 667.47 97.44 659.23 97.44 659.23 89.32 650.99 89.32 650.99 81.2 609.78 81.2 609.78 89.32 593.3 89.32 593.3 81.2 585.06 81.2 585.06 73.08 576.82 73.08 576.82 64.96 609 64.96 609 56.84 618.03 56.84 618.03 48.72 700.43 48.72 700.43 40.6 824.03 40.6 824.03 48.72 832.27 48.72 832.27 56.84 840.51 56.84 840.51 48.72 889.96 48.72" style="fill:#fff"/><polygon points="1021.8 64.96 1021.8 73.08 1038.28 73.08 1038.28 81.2 1054.76 81.2 1054.76 73.08 1071.24 73.08 1071.24 81.2 1087.72 81.2 1087.72 73.08 1079.48 73.08 1079.48 64.96 1104.21 64.96 1104.21 56.84 1054.76 56.84 1054.76 64.96 1021.8 64.96" style="fill:#fff"/><rect x="1211.33" y="56.84" width="16.48" height="8.12" style="fill:#fff"/><polygon points="1301.97 56.84 1301.97 48.72 1260.77 48.72 1260.77 56.84 1244.29 56.84 1244.29 64.96 1269.01 64.96 1269.01 56.84 1301.97 56.84" style="fill:#fff"/><polygon points="1689.27 81.2 1705.75 81.2 1705.75 89.32 1738.71 89.32 1738.71 97.44 1697.51 97.44 1697.51 89.32 1689.27 89.32 1689.27 81.2" style="fill:#fff"/><polygon points="1318.45 81.2 1318.45 89.32 1285.49 89.32 1277.25 89.32 1277.25 97.44 1269.01 97.44 1260.77 97.44 1260.77 105.56 1260.77 113.68 1236.05 113.68 1236.05 105.56 1244.29 105.56 1244.29 97.44 1252.53 97.44 1252.53 89.32 1269.01 89.32 1269.01 81.2 1318.45 81.2" style="fill:#fff"/><polygon points="618.03 40.6 618.03 48.72 601.54 48.72 601.54 56.84 576.82 56.84 576.82 64.96 560.34 64.96 560.34 73.08 543.86 73.08 543.86 81.2 543.86 89.32 469.7 89.32 469.7 81.2 486.18 81.2 486.18 73.08 469.7 73.08 469.7 64.96 444.98 64.96 444.98 56.84 453.22 56.84 453.22 48.72 519.14 48.72 519.14 40.6 618.03 40.6" style="fill:#fff"/><rect x="395.54" y="64.96" width="32.96" height="8.12" style="fill:#fff"/><rect x="403.78" y="81.2" width="32.96" height="8.12" style="fill:#fff"/><rect x="444.98" y="81.2" width="16.48" height="8.12" style="fill:#fff"/><polyline points="395.54 89.32 395.54 81.2 370.81 81.2 370.81 89.32 395.54 89.32" style="fill:#fff"/><rect x="354.33" y="64.96" width="24.72" height="8.12" style="fill:#fff"/><polygon points="363.67 89.32 363.67 81.2 346.09 81.2 346.09 73.08 321.37 73.08 321.37 81.2 304.89 81.2 304.89 89.32 363.67 89.32" style="fill:#fff"/><polygon points="1713.99 267.97 1722.23 267.97 1722.23 276.09 1738.71 276.09 1738.71 284.21 1713.99 284.21 1713.99 324.81 1705.75 324.81 1705.75 332.93 1689.27 332.93 1689.27 341.05 1664.55 341.05 1664.55 357.29 1656.31 357.29 1656.31 332.93 1664.55 332.93 1664.55 324.81 1689.27 324.81 1689.27 316.69 1705.75 316.69 1705.75 284.21 1713.99 284.21 1713.99 267.97" style="fill:#fff"/><rect x="1598.63" y="389.77" width="8.24" height="16.24" style="fill:#fff"/><polygon points="1606.87 430.38 1615.11 430.38 1615.11 446.62 1606.87 446.62 1606.87 454.74 1598.63 454.74 1598.63 430.38 1606.87 430.38" style="fill:#fff"/><polygon points="1615.11 454.74 1623.35 454.74 1623.35 462.86 1631.59 462.86 1631.59 479.1 1623.35 479.1 1623.35 487.22 1615.11 487.22 1615.11 454.74" style="fill:#fff"/><polygon points="1631.59 487.22 1631.59 503.46 1623.35 503.46 1623.35 495.34 1615.11 495.34 1615.11 487.22 1631.59 487.22" style="fill:#fff"/><polygon points="1582.15 495.34 1590.39 495.34 1590.39 503.46 1598.63 503.46 1598.63 511.58 1590.39 511.58 1590.39 544.06 1582.15 544.06 1582.15 568.42 1573.91 568.42 1573.91 560.3 1549.18 560.3 1549.18 552.18 1540.94 552.18 1540.94 527.82 1557.42 527.82 1557.42 519.7 1565.66 519.7 1565.66 511.58 1573.91 511.58 1573.91 503.46 1582.15 503.46 1582.15 495.34" style="fill:#fff"/><polygon points="1615.11 544.06 1615.11 552.18 1606.87 552.18 1606.87 560.3 1615.11 560.3 1615.11 568.42 1606.87 568.42 1606.87 560.3 1590.39 560.3 1590.39 552.18 1598.63 552.18 1598.63 544.06 1615.11 544.06" style="fill:#fff"/><polygon points="1656.31 544.06 1656.31 552.18 1664.55 552.18 1664.55 560.3 1681.03 560.3 1681.03 552.18 1672.79 552.18 1672.79 544.06 1656.31 544.06" style="fill:#fff"/><polygon points="1689.27 552.18 1705.75 552.18 1705.75 560.3 1722.23 560.3 1730.47 560.3 1730.47 568.42 1738.71 568.42 1738.71 576.54 1746.95 576.54 1746.95 592.78 1755.19 592.78 1755.19 600.9 1746.95 600.9 1746.95 592.78 1738.71 592.78 1738.71 584.66 1730.47 584.66 1730.47 592.78 1722.23 592.78 1722.23 600.9 1713.99 600.9 1713.99 592.78 1705.75 592.78 1689.27 592.78 1689.27 584.66 1697.51 584.66 1697.51 568.42 1689.27 568.42 1681.03 568.42 1681.03 560.3 1689.27 560.3 1689.27 552.18" style="fill:#fff"/><polygon points="1722.23 609.02 1722.23 625.26 1730.47 625.26 1730.47 633.38 1738.71 633.38 1738.71 657.74 1755.19 657.74 1755.19 673.99 1763.43 673.99 1763.43 682.11 1771.67 682.11 1771.67 690.23 1779.91 690.23 1779.91 722.71 1771.67 722.71 1771.67 738.95 1763.43 738.95 1763.43 747.07 1763.43 755.19 1755.19 755.19 1755.19 763.31 1746.95 763.31 1746.95 771.43 1705.75 771.43 1705.75 755.19 1697.51 755.19 1697.51 747.07 1681.03 747.07 1681.03 738.95 1672.79 738.95 1672.79 730.83 1631.59 730.83 1631.59 738.95 1623.35 738.95 1623.35 747.07 1582.15 747.07 1582.15 730.83 1573.91 730.83 1573.91 714.59 1573.91 706.47 1565.66 706.47 1565.66 673.99 1573.91 673.99 1573.91 665.87 1590.39 665.87 1590.39 657.74 1606.87 657.74 1606.87 649.62 1615.11 649.62 1615.11 641.5 1623.35 641.5 1623.35 633.38 1623.35 625.26 1656.31 625.26 1656.31 609.02 1689.27 609.02 1689.27 625.26 1681.03 625.26 1681.03 633.38 1697.51 633.38 1697.51 641.5 1713.99 641.5 1713.99 609.02 1722.23 609.02" style="fill:#fff"/><rect x="1738.71" y="787.67" width="8.24" height="8.12" style="fill:#fff"/><polygon points="1845.84 665.87 1845.84 673.99 1837.6 673.99 1837.6 665.87 1829.36 665.87 1829.36 657.74 1837.6 657.74 1837.6 665.87 1845.84 665.87" style="fill:#fff"/><polygon points="1903.52 649.62 1911.76 649.62 1911.76 641.5 1920 641.5 1920 633.38 1911.76 633.38 1911.76 641.5 1903.52 641.5 1903.52 649.62" style="fill:#fff"/><polygon points="1887.04 747.07 1878.8 747.07 1878.8 755.19 1887.04 755.19 1887.04 763.31 1895.28 763.31 1895.28 771.43 1895.28 779.55 1895.28 787.67 1903.52 787.67 1903.52 779.55 1911.76 779.55 1911.76 763.31 1895.28 763.31 1895.28 755.19 1887.04 755.19 1887.04 747.07" style="fill:#fff"/><polygon points="1887.04 787.67 1887.04 795.79 1878.8 795.79 1878.8 803.91 1870.56 803.91 1870.56 820.15 1854.08 820.15 1854.08 803.91 1870.56 803.91 1870.56 795.79 1878.8 795.79 1878.8 787.67 1887.04 787.67" style="fill:#fff"/><rect x="1623.35" y="592.78" width="8.24" height="8.12" style="fill:#fff"/><polygon points="1227.81 617.14 1227.81 641.5 1219.57 641.5 1219.57 673.99 1211.33 673.99 1211.33 690.23 1194.85 690.23 1194.85 657.74 1194.85 633.38 1211.33 633.38 1211.33 625.26 1219.33 625.26 1219.33 617.14 1227.81 617.14" style="fill:#fff"/><rect x="123.61" y="422.26" width="8.24" height="8.12" style="fill:#fff"/><rect x="115.36" y="406.02" width="8.24" height="8.12" style="fill:#fff"/><polygon points="964.12 219.25 964.12 235.49 939.4 235.49 939.4 243.61 931.16 243.61 931.16 235.49 939.4 235.49 939.4 211.13 931.16 211.13 931.16 203.01 922.92 203.01 922.92 194.89 931.16 194.89 931.16 186.77 939.4 186.77 939.4 194.89 947.64 194.89 947.64 211.13 955.88 211.13 955.88 219.25 964.12 219.25" style="fill:#fff"/><polygon points="906.44 227.37 906.44 219.25 914.68 219.25 914.68 211.13 931.16 211.13 931.16 219.25 931.16 227.37 906.44 227.37" style="fill:#fff"/><rect x="972.36" y="300.45" width="8.24" height="8.12" style="fill:#fff"/><rect x="865.24" y="341.05" width="8.24" height="8.12" style="fill:#fff"/><rect x="1005.32" y="292.33" width="8.24" height="16.24" style="fill:#fff"/><rect x="1087.73" y="324.81" width="8.24" height="8.12" style="fill:#fff"/><rect x="642.75" y="844.51" width="8.24" height="8.12" style="fill:#fff"/><rect x="758.11" y="860.75" width="8.24" height="8.12" style="fill:#fff"/><rect x="1326.7" y="828.27" width="8.24" height="8.12" style="fill:#fff"/><rect x="1590.39" y="479.1" width="8.24" height="8.12" style="fill:#fff"/><rect x="1244.29" y="462.86" width="8.24" height="8.12" style="fill:#fff"/><rect x="1030.04" y="308.57" width="16.48" height="8.12" style="fill:#fff"/><rect x="1911.76" y="105.56" width="8.24" height="8.12" style="fill:#fff"/><rect x="1821.12" y="600.9" width="8.24" height="8.12" style="fill:#fff"/><polygon points="1812.88 600.9 1812.88 592.78 1796.39 592.78 1796.39 584.66 1788.15 584.66 1788.15 576.54 1779.91 576.54 1779.91 568.42 1788.15 568.42 1788.15 576.54 1796.39 576.54 1796.39 584.66 1804.63 584.66 1812.88 584.66 1812.88 592.78 1821.12 592.78 1821.12 600.9 1812.88 600.9" style="fill:#fff"/><polygon points="1779.91 560.3 1779.91 568.42 1771.67 568.42 1771.67 576.54 1763.43 576.54 1763.43 568.42 1771.67 568.42 1771.67 560.3 1779.91 560.3" style="fill:#fff"/><polygon points="519.14 397.89 535.62 397.89 535.62 406.01 552.1 406.01 552.1 414.13 560.34 414.13 560.34 422.26 543.86 422.26 543.86 414.13 535.62 414.13 535.62 406.01 527.38 406.01 527.38 414.13 519.14 414.13 519.14 397.89" style="fill:#fff"/><rect x="568.58" y="422.26" width="24.72" height="8.12" style="fill:#fff"/><rect x="601.55" y="430.38" width="8.24" height="8.12" style="fill:#fff"/><polyline points="560.34 406.01 560.34 397.89 552.1 397.89 552.1 389.77 535.62 389.77 535.62 397.89 543.86 397.89 543.86 406 560.34 406" style="fill:#fff"/><rect x="543.86" y="430.38" width="8.24" height="8.12" style="fill:#fff"/><polygon points="444.98 97.44 444.98 113.68 428.5 113.68 428.5 105.56 420.26 105.56 420.26 97.44 444.98 97.44" style="fill:#fff"/><rect x="49.44" y="154.29" width="8.24" height="8.12" style="fill:#fff"/><rect x="140.09" y="194.89" width="8.24" height="8.12" style="fill:#fff"/><rect x="57.68" y="219.25" width="8.24" height="8.12" style="fill:#fff"/><rect x="659.23" y="227.37" width="8.24" height="8.12" style="fill:#fff"/><polygon points="642.75 243.61 642.75 251.73 650.99 251.73 650.99 259.85 675.71 259.85 675.71 243.61 659.23 243.61 659.23 235.49 650.99 235.49 650.99 243.61 642.75 243.61" style="fill:#fff"/><rect x="519.14" y="487.22" width="16.48" height="8.12" style="fill:#fff"/><polygon points="758.11 568.42 758.11 560.3 733.39 560.3 733.39 552.18 716.91 552.18 716.91 544.06 700.43 544.06 700.43 527.82 692.19 527.82 692.19 519.7 683.95 519.7 683.95 511.58 675.71 511.58 675.71 503.46 650.99 503.46 650.99 495.34 642.75 495.34 642.75 487.22 634.51 487.22 634.51 479.1 593.3 479.1 593.3 470.98 560.34 470.98 560.34 479.1 552.1 479.1 552.1 487.22 543.86 487.22 543.86 495.34 543.86 519.7 543.86 527.82 535.62 527.82 535.62 544.06 527.38 544.06 527.38 576.54 535.62 576.54 535.62 592.78 543.86 592.78 543.86 609.02 552.1 609.02 552.1 633.38 568.58 633.38 568.58 641.5 576.82 641.5 576.82 649.62 585.06 649.62 585.06 706.47 576.82 706.47 576.82 755.19 568.58 755.19 568.58 787.67 560.34 787.67 560.34 795.79 560.34 803.91 560.34 828.27 560.34 860.75 568.58 860.75 576.82 860.75 576.82 868.87 585.06 868.87 585.06 876.99 601.54 876.99 601.54 868.87 609.78 868.87 609.78 860.75 601.54 860.75 601.54 852.63 593.3 852.63 593.3 836.39 601.54 836.39 601.54 828.27 609.78 828.27 609.78 820.15 601.54 820.15 601.54 812.03 609.78 812.03 609.78 803.91 618.03 803.91 618.03 787.67 634.51 787.67 634.51 771.43 642.75 771.43 650.99 771.43 650.99 763.31 659.23 763.31 659.23 747.07 675.71 747.07 675.71 738.95 683.95 738.95 683.95 730.83 692.19 730.83 692.19 714.59 700.43 714.59 700.43 690.23 708.67 690.23 708.67 682.11 733.39 682.11 733.39 673.99 741.63 673.99 741.63 665.87 749.87 665.87 749.87 657.74 749.87 617.14 758.11 617.14 758.11 609.02 766.35 609.02 766.35 600.9 774.59 600.9 774.59 568.42 758.11 568.42" style="fill:#fff"/><rect x="535.62" y="479.1" width="8.24" height="8.12" style="fill:#fff"/><rect x="74.16" y="211.13" width="16.48" height="8.12" style="fill:#fff"/><rect x="90.64" y="203.01" width="16.48" height="8.12" style="fill:#fff"/><path d="M510.9,471v-8.12h8.24V446.62h-33V438.5h8.24V414.14H477.94v8.12H469.7v8.12H453.22v-8.12H445v-8.12h-8.24V389.77H445V365.41h41.2v-8.12h33v32.48h16.48V373.53h-8.24V349.17h8.24v-8.12h8.24v-8.12h8.24V316.69h8.24V300.45h8.24v-8.12h16.48V276.09h16.48V268h8.24v8.12H618V268h24.72v-8.12H618V243.61H601.54v8.12H593.3v-8.12h8.24v-8.12H651v-8.12h8.24v-8.12H651v-8.12h-8.24V203h-8.24v-8.12h-8.24v-8.12H618v-8.12h-8.24v8.12H593.3v-8.12h-8.24v-8.12H568.58v-8.12H543.86v32.48h8.24V203h-8.24v8.12h-8.24v16.24h-8.24v-8.12h-8.24v-8.12H502.66V203H486.18v-8.12H469.7v-8.12H453.22V170.53H469.7v-8.12h8.24v-8.12h16.48v-8.12h8.08v8.12h-8.08v8.12H510.9v8.12h8.24v-8.12h8.24v-8.12h-8.24V138h8.24V121.8h16.48V138h16.48v-8.12h8.24v16.24H543.86v8.12h33v8.12H593.3v8.12H618V154.29h-8.24v-8.12h24.72V138H618v-8.12H601.54V113.68h-33v-8.12H552.1V97.44H486.18v8.12h-8.24v8.12h8.24v8.12h16.48v8.12H477.94V121.8H469.7v-8.12h-8.24v-8.12h16.48V97.44H453.22v7.85h0v8.39H445v8.12h-8.24v8.12H420.26V121.8H412v-8.12h-8.24V97.44H387.3v8.12h-33V97.44H296.65v16.24h24.72v-8.12h8.24v8.12h8.24v8.12h16.48v8.12h24.72V121.8h24.72v8.12H387.3V138h-41.2v-8.12H329.61v-7.17H173v-9.07H107.12v8.12H82.4V138H98.88v8.12h-33v8.12h33v8.12H74.16v8.12H65.92v8.12H90.64v8.12h24.72v8.12h-8.24V203h16.48v-8.12h16.48V178.65h8.24v8.12h8.24v-8.12H173v-8.12h8.24v8.12H206v8.12h16.48v8.12H239V203h8.24v8.12h16.48v16.24h8.24v8.12h8.24v8.12h8.24v8.12h8.24v56.84h8.24v8.12h8.24v16.24h16.48v8.12h8.24v24.36h8.24v16.24h16.48v-8.12h-8.24V357.29h-8.24v-8.12h8.24v8.12h8.24v16.24h8.24v8.12h8.24v8.12h8.24v8.12h8.24v24.36h8.24v8.12h16.48v8.12h16.48v8.12h33v8.12h8.24v8.12h16.48V471h8.24v8.12h8.24v8.12h8.24V471Zm-33-219.25h8.24v-8.12h16.48v8.12h8.24V268h24.72v8.12H552.1v8.12H535.62v8.12H519.14v-8.12h16.48v-8.12H510.9V268h-8.24v24.36h-8.41V268h8.41v-8.12H477.94Zm-148.33-106H313.13v8.54h-8.24V138h24.72Z" style="fill:#fff"/><rect x="370.82" y="397.89" width="8.24" height="8.12" style="fill:#fff"/><rect x="362.58" y="381.65" width="8.24" height="16.24" style="fill:#fff"/><polygon points="1920 1006.92 1920 1080 0 1080 0 1006.92 115.36 1006.92 115.36 998.8 173.05 998.8 173.05 990.68 238.97 990.68 238.97 982.56 370.81 982.56 370.81 990.68 412.02 990.68 412.02 974.44 502.66 974.44 502.66 982.56 527.38 982.56 527.38 974.44 560.34 974.44 560.34 958.2 576.82 958.2 576.82 950.08 585.06 950.08 585.06 958.2 601.54 958.2 601.54 941.96 609.78 941.96 609.78 933.84 618.03 933.84 618.03 925.71 642.75 925.71 642.75 917.59 667.47 917.59 667.47 925.71 642.75 925.71 642.75 958.2 634.51 958.2 634.51 966.32 642.75 966.32 642.75 982.56 634.51 982.56 634.51 990.68 650.99 990.68 650.99 998.8 700.43 998.8 700.43 1006.92 791.07 1006.92 791.07 998.8 815.79 998.8 815.79 990.68 824.03 990.68 824.03 982.56 857 982.56 857 974.44 889.96 974.44 889.96 966.32 939.4 966.32 939.4 958.2 1120.69 958.2 1120.69 950.08 1153.65 950.08 1153.65 958.2 1170.13 958.2 1170.13 950.08 1203.09 950.08 1203.09 941.96 1227.81 941.96 1227.81 933.84 1260.77 933.84 1260.77 941.96 1301.97 941.96 1301.97 950.08 1351.42 950.08 1351.42 958.2 1376.14 958.2 1376.14 950.08 1392.62 950.08 1392.62 941.96 1417.34 941.96 1417.34 933.84 1433.82 933.84 1433.82 941.96 1466.78 941.96 1466.78 925.71 1483.26 925.71 1483.26 933.84 1524.46 933.84 1524.46 941.96 1549.18 941.96 1549.18 933.84 1573.91 933.84 1573.91 941.96 1615.11 941.96 1615.11 933.84 1689.27 933.84 1689.27 941.96 1738.71 941.96 1738.71 950.08 1788.15 950.08 1788.15 958.2 1829.36 958.2 1829.36 966.32 1870.56 966.32 1870.56 974.44 1862.32 974.44 1862.32 982.56 1837.6 982.56 1837.6 990.68 1829.36 990.68 1829.36 1006.92 1845.84 1006.92 1845.84 998.8 1854.08 998.8 1870.56 998.8 1870.56 1006.92 1920 1006.92" style="fill:#fff"/><polygon points="1557.42 576.54 1524.46 576.54 1524.46 584.66 1549.18 584.66 1549.18 592.78 1573.91 592.78 1573.91 584.66 1557.42 584.66 1557.42 576.54" style="fill:#fff"/><polygon points="1046.52 300.45 1046.52 308.57 1054.76 308.57 1054.76 292.33 1046.52 292.33 1038.28 292.33 1038.28 300.45 1046.52 300.45" style="fill:#fff"/><rect x="1450.3" y="56.84" width="32.96" height="8.12" style="fill:#fff"/><path d="M1878.8,121.8h-65.92v-8.12h-49.44v-8.12h-65.92v8.12h-49.44V97.44h-33v8.12h-16.48V97.44h-33V81.2h-33v-8h-8.24V65h-41.2v8.2H1508v8H1450.3v8.12h-33v8.12h-24.72v8.12h-49.44V97.44h-8.24v8.12h-8.24v8.12h-8.24v8.12h8.24v8.12h-16.48V121.8h-33v8.12h-57.68V138h-8.24v-8.12h-16.48v16.24h-16.48v8.12h-33v-8.12h-8.24V138h16.48v8.12h24.72V129.92h-33V121.8h-16.48v-8.12h-49.44v8.12h-41.2V138H1030v8.12h-8.24v8.12h-16.48v8.12H988.84v32.48h16.48v-8.12h16.48v24.36h16.48V203h8.24V186.77H1063v-8.12h-8.24V162.41H1063v-8.12h8.24v-8.12H1096v8.12h-16.48v8.12h-8.24v16.24h41.2v8.12h-24.72v8.12h-16.48v16.24h-24.72v8.12H1021.8v-8.12h-8.24V194.89h-8.24v24.36H988.84v8.12H980.6v8.12h-8.24v8.12H947.64v8.12H939.4v8.12h16.48v16.24h-41.2v40.6h8.24v8.12h24.72v-8.1l8.25,0v-8.12h8.24V292.33H980.6V276.09h8.24v8.12h8.24v-8.12h16.48v8.12h8.24v8.12h16.48v-8.12H1030V268h8.24v8.12h8.24v8.12H1063v16.24h8.24v16.24h16.48V300.45h16.48v24.36h16.48v-8.12h8.24v8.12h24.72v16.24h-8.24v16.24h-16.48v-8.12h-8.24v8.12h-16.48v-8.12h-33v8.12h-24.72v-8.12h-8.24v-8.12h-24.72v-8.12h8.24V316.69H972.36v8.12H955.88v8.12h-33v8.12h-8.24v8.12h-8.24v16.24H898.2v8.12H890v8.12h-8.24v16.24h-8.24V406h-8.24v65h8.24v8.12H890v16.24h8.24v8.12h8.24v8.12h49.44v-8.12h33v8.12h16.48v8.12h8.24v16.24h-8.24v16.24h8.24v8.12h8.24v16.24H1030v48.72h-8.24v32.48H1030v8.12h8.24v40.6h8.24v8.12h8.24v32.48h49.44v-8.12h8.24v-8.12h8.24v-8.12h8.24v-8.12h8.24V690.23h16.48V665.86h-8.24v-8.12h8.24v-8.12h8.24V641.5h16.48V600.9h-8.24V560.3h8.24v-8.12h8.24v-8.12h8.24v-8.12h8.24v-8.12h8.24V519.7h8.24V495.34h8.24v-8.12h8.24V471h-24.72v8.12h-16.48V471h-8.24v-8.12h-8.24V446.62h-8.24V438.5h-8.24V414.14h-8.24V406h-8.24V381.65h-8.24V365.41h8.24v8.12h8.24v16.24h8.24v8.12h8.24v24.36h8.24v8.12h8.24v24.36h8.24v8.12h16.48v-8.12h16.48v-8.12h8.24V438.5h16.48v-8.12H1269V414.14h8.24V397.89h-16.48v-8.12h-8.24v8.12h-16.48v-8.12h-8.24V373.53h-8.24V357.29h8.24v8.12h8.24v8.12h8.24v8.12H1269v8.12h49.44v8.12h8.24v16.24h16.48v8.12h8.24v32.48h8.24V471h8.24v24.36h8.24v-8.12h8.24v16.24h8.24V479.1h-8.24V446.62h16.48V438.5h8.24v-8.12h8.24v-8.12h8.24v-8.12h16.48V406h8.24v16.24h8.24v8.12h8.24v8.12h-8.24v8.12H1475V438.5h8.24v56.79h8.24v16.24h8.24v16.24h-8.24v-8.12h-8.24v-8.12H1475v16.24h8.24v8.12h8.24v16.24h8.24v8.12H1508v8.12h8.24v8.12h8.24V544h-8.24V511.53H1508v-8.12h-8.24V487.17h-8.24V462.86H1508V479.1h8.24v8.12h16.48V479.1h8.24V438.5h-8.24v-8.12h-8.24V414.14h16.48v16.24h8.24V414.14h16.48V406h16.48v-8.12h8.24v-8.12h8.24V373.53h8.24v-8.12h8.24V341.05h-8.24v-8.12h-8.24v-8.12h8.24v-8.12h-8.24V300.45h24.72v16.24h8.24v16.24h16.48V308.57h-8.24v-8.12h8.24v-8.12h8.24v-8.12H1681v-8.12h8.24V268h8.24v-8.12h8.24V235.49h16.48V219.25h-33V203h8.24v-8.12H1714v-8.12h74.16v-8.12h8.24v-8.12h16.48v8.12h8.24v-8.12h8.24v8.12h49.44v-8.12h24.72v-8.12h8.24v-8.12H1920V121.8ZM1178.37,292.33h-65.92V268h8.24v-8.12h16.48V276.5h8.24V259.85h16.48v16.24h8.24v8.12h8.24ZM1244.29,268h-16.48v8.12h8.24v8.12h8.24v40.6h-16.48v-8.12h-8.24V300.45h8.24v-8.12h-8.24V284h-8.24V268h8.24v-8.12h24.72ZM1359.66,138h-8.24V121.8h8.24Z" style="fill:#fff"/><polygon points="1821.12 186.77 1804.63 186.77 1804.63 194.89 1796.39 194.89 1796.39 203.01 1788.15 203.01 1788.15 219.25 1796.39 219.25 1796.39 235.49 1804.63 235.49 1804.63 219.25 1812.88 219.25 1812.88 211.13 1821.12 211.13 1821.12 203.01 1829.36 203.01 1829.36 178.65 1821.12 178.65 1821.12 186.77" style="fill:#fff"/><rect x="1722.23" y="235.49" width="8.24" height="8.12" style="fill:#fff"/><rect x="1713.99" y="243.61" width="8.24" height="16.24" style="fill:#fff"/><polygon points="1475.02 511.53 1475.02 503.46 1466.78 503.46 1466.78 511.58 1475.02 511.53" style="fill:#fff"/></g></svg>